# xmcd
#
# Track frame offsets:
#	150
#	28743
#	51838
#	73288
#	98352
#	124843
#	154421
#	184836
#	213145
#	240811
#	262768
#
# Disc length: 3836 seconds
#
# Revision: 0
# Processed by: cddbd v1.5.2PL0 Copyright (c) Steve Scherf et al.
# Submitted via: SynApp - FreeCDDB Version: 2.2
#
DISCID=8d0efa0b
DTITLE=02. - m
DYEAR=1
DGENRE=m
TTITLE0=Green Valley
TTITLE1=Sunrise
TTITLE2=Reflections
TTITLE3=03. - Moonlight
TTITLE4=04. - Springtime
TTITLE5=05. - Watergarden
TTITLE6=06 - Meditations Shuffle
TTITLE7=07 - Lazy Day
TTITLE8=08 - Walk Along The Beach
TTITLE9=09. Dreams - n`Drums
TTITLE10=10 - Happy Hour
EXTD=
EXTT0=
EXTT1=
EXTT2=
EXTT3=
EXTT4=
EXTT5=
EXTT6=
EXTT7=
EXTT8=
EXTT9=
EXTT10=
PLAYORDER=
